<mxfile host="app.diagrams.net" modified="2024-05-29T04:50:14.750Z" agent="Mozilla/5.0 (Windows NT 10.0; Win64; x64) AppleWebKit/537.36 (KHTML, like Gecko) Chrome/125.0.0.0 Safari/537.36" etag="aWqqXEvDwe2xSXitDiKa" version="24.4.9" type="github">
  <diagram name="Page-1" id="e7e014a7-5840-1c2e-5031-d8a46d1fe8dd">
    <mxGraphModel dx="1304" dy="678" grid="1" gridSize="10" guides="1" tooltips="1" connect="1" arrows="1" fold="1" page="1" pageScale="1" pageWidth="1169" pageHeight="826" background="none" math="0" shadow="0">
      <root>
        <mxCell id="0" />
        <mxCell id="1" parent="0" />
        <mxCell id="2" value="Ci" style="swimlane;whiteSpace=wrap" parent="1" vertex="1">
          <mxGeometry y="123" width="560" height="580" as="geometry" />
        </mxCell>
        <mxCell id="5" value="" style="ellipse;shape=startState;fillColor=#000000;strokeColor=#ff0000;" parent="2" vertex="1">
          <mxGeometry x="260" y="30" width="30" height="30" as="geometry" />
        </mxCell>
        <mxCell id="6" value="" style="edgeStyle=elbowEdgeStyle;elbow=horizontal;verticalAlign=bottom;endArrow=open;endSize=8;strokeColor=#FF0000;endFill=1;rounded=0" parent="2" source="5" target="7" edge="1">
          <mxGeometry x="100" y="40" as="geometry">
            <mxPoint x="115" y="110" as="targetPoint" />
          </mxGeometry>
        </mxCell>
        <mxCell id="7" value="Merge Request   " style="" parent="2" vertex="1">
          <mxGeometry x="220" y="110" width="110" height="50" as="geometry" />
        </mxCell>
        <mxCell id="8" value="Build Application" style="" parent="2" vertex="1">
          <mxGeometry x="20" y="317" width="110" height="50" as="geometry" />
        </mxCell>
        <mxCell id="9" value="Sim" style="endArrow=open;strokeColor=#FF0000;endFill=1;rounded=0;exitX=0;exitY=0.5;exitDx=0;exitDy=0;entryX=1;entryY=0.5;entryDx=0;entryDy=0;" parent="2" source="VkM7wz7-X7QMQRe8iBU6-45" target="VkM7wz7-X7QMQRe8iBU6-75" edge="1">
          <mxGeometry relative="1" as="geometry">
            <Array as="points">
              <mxPoint x="150" y="250" />
            </Array>
          </mxGeometry>
        </mxCell>
        <mxCell id="VkM7wz7-X7QMQRe8iBU6-52" value="" style="edgeStyle=orthogonalEdgeStyle;rounded=0;orthogonalLoop=1;jettySize=auto;html=1;" edge="1" parent="2" source="10">
          <mxGeometry relative="1" as="geometry">
            <mxPoint x="75" y="507" as="targetPoint" />
          </mxGeometry>
        </mxCell>
        <mxCell id="10" value="Unit Tests" style="" parent="2" vertex="1">
          <mxGeometry x="20" y="407" width="110" height="50" as="geometry" />
        </mxCell>
        <mxCell id="11" value="" style="endArrow=open;strokeColor=#FF0000;endFill=1;rounded=0" parent="2" source="8" target="10" edge="1">
          <mxGeometry relative="1" as="geometry" />
        </mxCell>
        <mxCell id="VkM7wz7-X7QMQRe8iBU6-46" value="" style="endArrow=open;strokeColor=#FF0000;endFill=1;rounded=0" edge="1" parent="2" source="7" target="VkM7wz7-X7QMQRe8iBU6-45">
          <mxGeometry relative="1" as="geometry">
            <mxPoint x="125" y="290" as="sourcePoint" />
            <mxPoint x="125" y="460" as="targetPoint" />
          </mxGeometry>
        </mxCell>
        <mxCell id="VkM7wz7-X7QMQRe8iBU6-45" value="Prd/Hml?" style="rhombus;whiteSpace=wrap;html=1;" vertex="1" parent="2">
          <mxGeometry x="235" y="210" width="80" height="80" as="geometry" />
        </mxCell>
        <mxCell id="VkM7wz7-X7QMQRe8iBU6-55" value="" style="edgeStyle=orthogonalEdgeStyle;rounded=0;orthogonalLoop=1;jettySize=auto;html=1;" edge="1" parent="2" source="VkM7wz7-X7QMQRe8iBU6-47" target="VkM7wz7-X7QMQRe8iBU6-54">
          <mxGeometry relative="1" as="geometry" />
        </mxCell>
        <mxCell id="VkM7wz7-X7QMQRe8iBU6-47" value="Build Application" style="" vertex="1" parent="2">
          <mxGeometry x="400" y="225" width="110" height="50" as="geometry" />
        </mxCell>
        <mxCell id="VkM7wz7-X7QMQRe8iBU6-49" value="Não" style="endArrow=open;strokeColor=#FF0000;endFill=1;rounded=0;exitX=1;exitY=0.5;exitDx=0;exitDy=0;entryX=0;entryY=0.5;entryDx=0;entryDy=0;" edge="1" parent="2" source="VkM7wz7-X7QMQRe8iBU6-45" target="VkM7wz7-X7QMQRe8iBU6-47">
          <mxGeometry relative="1" as="geometry">
            <mxPoint x="85" y="285" as="sourcePoint" />
            <mxPoint x="270" y="290" as="targetPoint" />
            <Array as="points" />
          </mxGeometry>
        </mxCell>
        <mxCell id="VkM7wz7-X7QMQRe8iBU6-50" value="Security Tests" style="" vertex="1" parent="2">
          <mxGeometry x="20" y="507" width="110" height="50" as="geometry" />
        </mxCell>
        <mxCell id="VkM7wz7-X7QMQRe8iBU6-67" style="edgeStyle=orthogonalEdgeStyle;rounded=0;orthogonalLoop=1;jettySize=auto;html=1;entryX=0;entryY=0.75;entryDx=0;entryDy=0;" edge="1" parent="2" target="VkM7wz7-X7QMQRe8iBU6-58">
          <mxGeometry relative="1" as="geometry">
            <mxPoint x="130" y="531.9999999999998" as="sourcePoint" />
          </mxGeometry>
        </mxCell>
        <mxCell id="VkM7wz7-X7QMQRe8iBU6-60" style="edgeStyle=orthogonalEdgeStyle;rounded=0;orthogonalLoop=1;jettySize=auto;html=1;exitX=0.5;exitY=1;exitDx=0;exitDy=0;entryX=0.5;entryY=0;entryDx=0;entryDy=0;" edge="1" parent="2" source="VkM7wz7-X7QMQRe8iBU6-54" target="VkM7wz7-X7QMQRe8iBU6-58">
          <mxGeometry relative="1" as="geometry" />
        </mxCell>
        <mxCell id="VkM7wz7-X7QMQRe8iBU6-54" value="Security Tests" style="" vertex="1" parent="2">
          <mxGeometry x="400" y="303" width="110" height="57" as="geometry" />
        </mxCell>
        <mxCell id="VkM7wz7-X7QMQRe8iBU6-68" style="edgeStyle=orthogonalEdgeStyle;rounded=0;orthogonalLoop=1;jettySize=auto;html=1;" edge="1" parent="2" source="VkM7wz7-X7QMQRe8iBU6-58" target="VkM7wz7-X7QMQRe8iBU6-64">
          <mxGeometry relative="1" as="geometry" />
        </mxCell>
        <mxCell id="VkM7wz7-X7QMQRe8iBU6-58" value="Build Image" style="whiteSpace=wrap;html=1;aspect=fixed;" vertex="1" parent="2">
          <mxGeometry x="270" y="440" width="60" height="60" as="geometry" />
        </mxCell>
        <mxCell id="VkM7wz7-X7QMQRe8iBU6-64" value="Generate Tag" style="whiteSpace=wrap;html=1;aspect=fixed;" vertex="1" parent="2">
          <mxGeometry x="410" y="440" width="60" height="60" as="geometry" />
        </mxCell>
        <mxCell id="VkM7wz7-X7QMQRe8iBU6-76" value="" style="edgeStyle=orthogonalEdgeStyle;rounded=0;orthogonalLoop=1;jettySize=auto;html=1;" edge="1" parent="2" source="VkM7wz7-X7QMQRe8iBU6-75" target="8">
          <mxGeometry relative="1" as="geometry" />
        </mxCell>
        <mxCell id="VkM7wz7-X7QMQRe8iBU6-75" value="Package" style="" vertex="1" parent="2">
          <mxGeometry x="20" y="225" width="110" height="50" as="geometry" />
        </mxCell>
        <mxCell id="3" value="Deploy    " style="swimlane;whiteSpace=wrap" parent="1" vertex="1">
          <mxGeometry x="660" y="121" width="480" height="584" as="geometry" />
        </mxCell>
        <mxCell id="13" value="" style="ellipse;shape=startState;fillColor=#000000;strokeColor=#ff0000;" parent="3" vertex="1">
          <mxGeometry x="190" y="34" width="30" height="30" as="geometry" />
        </mxCell>
        <mxCell id="14" value="" style="edgeStyle=elbowEdgeStyle;elbow=horizontal;verticalAlign=bottom;endArrow=open;endSize=8;strokeColor=#FF0000;endFill=1;rounded=0" parent="3" source="13" target="15" edge="1">
          <mxGeometry x="40" y="20" as="geometry">
            <mxPoint x="55" y="90" as="targetPoint" />
          </mxGeometry>
        </mxCell>
        <mxCell id="15" value="Wb Tag Created" style="" parent="3" vertex="1">
          <mxGeometry x="150" y="144" width="110" height="50" as="geometry" />
        </mxCell>
        <mxCell id="VkM7wz7-X7QMQRe8iBU6-74" value="" style="edgeStyle=orthogonalEdgeStyle;rounded=0;orthogonalLoop=1;jettySize=auto;html=1;" edge="1" parent="3" source="16">
          <mxGeometry relative="1" as="geometry">
            <mxPoint x="205" y="349" as="targetPoint" />
          </mxGeometry>
        </mxCell>
        <mxCell id="16" value="Deploy Aws" style="" parent="3" vertex="1">
          <mxGeometry x="150" y="267" width="110" height="50" as="geometry" />
        </mxCell>
        <mxCell id="17" value="" style="endArrow=open;strokeColor=#FF0000;endFill=1;rounded=0" parent="3" source="15" target="16" edge="1">
          <mxGeometry relative="1" as="geometry" />
        </mxCell>
        <mxCell id="VkM7wz7-X7QMQRe8iBU6-70" value="" style="ellipse;shape=endState;fillColor=#000000;strokeColor=#ff0000" vertex="1" parent="3">
          <mxGeometry x="190" y="349" width="30" height="30" as="geometry" />
        </mxCell>
        <mxCell id="VkM7wz7-X7QMQRe8iBU6-69" style="edgeStyle=orthogonalEdgeStyle;rounded=0;orthogonalLoop=1;jettySize=auto;html=1;entryX=0;entryY=0.5;entryDx=0;entryDy=0;" edge="1" parent="1" source="VkM7wz7-X7QMQRe8iBU6-64" target="3">
          <mxGeometry relative="1" as="geometry">
            <mxPoint x="660" y="593" as="targetPoint" />
          </mxGeometry>
        </mxCell>
      </root>
    </mxGraphModel>
  </diagram>
</mxfile>
